<?xml version="1.0" encoding="UTF-8" standalone="no"?>
<svg
   xmlns:dc="http://purl.org/dc/elements/1.1/"
   xmlns:cc="http://creativecommons.org/ns#"
   xmlns:rdf="http://www.w3.org/1999/02/22-rdf-syntax-ns#"
   xmlns:svg="http://www.w3.org/2000/svg"
   xmlns="http://www.w3.org/2000/svg"
   xmlns:sodipodi="http://sodipodi.sourceforge.net/DTD/sodipodi-0.dtd"
   xmlns:inkscape="http://www.inkscape.org/namespaces/inkscape"
   width="64"
   height="64"
   viewBox="0 0 64 64"
   version="1.1"
   id="svg6"
   sodipodi:docname="gregornet2.svg"
   inkscape:version="0.92.1 r15371">
  <metadata
     id="metadata12">
    <rdf:RDF>
      <cc:Work
         rdf:about="">
        <dc:format>image/svg+xml</dc:format>
        <dc:type
           rdf:resource="http://purl.org/dc/dcmitype/StillImage" />
        <dc:title></dc:title>
      </cc:Work>
    </rdf:RDF>
  </metadata>
  <defs
     id="defs10" />
  <sodipodi:namedview
     pagecolor="#ffffff"
     bordercolor="#666666"
     borderopacity="1"
     objecttolerance="10"
     gridtolerance="10"
     guidetolerance="10"
     inkscape:pageopacity="0"
     inkscape:pageshadow="2"
     inkscape:window-width="1910"
     inkscape:window-height="1142"
     id="namedview8"
     showgrid="false"
     inkscape:zoom="11.313709"
     inkscape:cx="18.068828"
     inkscape:cy="46.722175"
     inkscape:window-x="0"
     inkscape:window-y="32"
     inkscape:window-maximized="0"
     inkscape:current-layer="svg6"
     inkscape:snap-bbox="true"
     inkscape:bbox-nodes="true"
     fit-margin-top="0"
     fit-margin-left="0"
     fit-margin-right="0"
     fit-margin-bottom="0">
    <inkscape:grid
       type="xygrid"
       id="grid32"
       spacingx="2"
       spacingy="2"
       empspacing="4"
       originx="8"
       originy="8" />
  </sodipodi:namedview>
  <circle
     style="opacity:1;fill:#3f51b5;fill-opacity:1;stroke:none;stroke-width:5.15527582;stroke-linecap:round;stroke-linejoin:miter;stroke-miterlimit:4;stroke-dasharray:none;stroke-dashoffset:0;stroke-opacity:0.92975207;paint-order:markers fill stroke"
     id="path28"
     cx="32"
     cy="32"
     r="32" />
  <path
     d="m 31.990234,12 c -4.077554,0 -7.8637,1.225146 -11.023437,3.318359 l 2.914062,2.914063 c 0.922099,-0.544865 1.898864,-1.010336 2.929688,-1.363281 -0.509082,0.946043 -0.954342,1.92975 -1.361328,2.93164 l 3.103515,3.105469 C 29.392906,20.4613 30.546622,18.159 32,16.070312 33.67,18.470313 34.970313,21.14 35.820312,24 h -6.173828 l 4,4 h 3.033204 c 0.158301,1.091456 0.256499,2.201165 0.291015,3.326172 l 3.833985,3.835937 C 40.914676,34.122191 41,33.072318 41,32 41,30.64 40.890703,29.31 40.720703,28 h 6.75 C 47.800703,29.28 48,30.62 48,32 c 0,1.38 -0.189297,2.72 -0.529297,4 h -5.826172 l 7.029297,7.033203 C 50.771699,39.870296 52,36.080671 52,32 52,20.95 43.040234,12 31.990234,12 Z M 14.550781,14 12,16.550781 l 3.78125,3.78125 C 13.410743,23.615836 12,27.636478 12,32 c 0,11.05 8.940234,20 19.990234,20 4.364556,0 8.387671,-1.412239 11.673828,-3.785156 L 47.449219,52 50,49.460938 Z m 22.628907,2.880859 C 40.859687,18.140859 43.919844,20.69 45.839844,24 h -5.900391 c -0.65,-2.5 -1.559765,-4.899141 -2.759765,-7.119141 z M 18.652344,23.203125 19.449219,24 h -1.298828 c 0.157998,-0.272383 0.328322,-0.535454 0.501953,-0.796875 z M 16.519531,28 h 6.75 C 23.109531,29.31 23,30.64 23,32 c 0,1.36 0.109297,2.69 0.279297,4 H 16.519531 C 16.189531,34.72 16,33.38 16,32 c 0,-1.38 0.189531,-2.72 0.519531,-4 z m 10.5,3.570312 L 31.449219,36 H 27.320312 C 27.130312,34.69 27,33.36 27,32 c 0,-0.144687 0.01667,-0.285667 0.01953,-0.429688 z M 18.150391,40 h 5.90039 c 0.65,2.5 1.559766,4.900859 2.759766,7.130859 C 23.130547,45.870859 20.070391,43.31 18.150391,40 Z m 10.029297,0 h 7.269531 l 0.27539,0.275391 C 34.864961,43.029757 33.605723,45.608159 32,47.929688 30.34,45.529688 29.039687,42.86 28.179688,40 Z m 10.683593,3.414062 1.923828,1.923829 c -1.109793,0.736435 -2.313526,1.340377 -3.597656,1.78125 0.640925,-1.191053 1.193849,-2.430587 1.673828,-3.705079 z"
     id="path12"
     inkscape:connector-curvature="0"
     sodipodi:nodetypes="sccccccccccccsccscccsscccssccccccccccccccsccsccccscccccccccccccc"
     style="fill:#ffffff" />
  <path
     d="M 8,8 H 56 V 56 H 8 Z"
     id="path4"
     style="fill:none;stroke:none"
     inkscape:connector-curvature="0" />
</svg>
