<?xml version="1.0" encoding="UTF-8" standalone="no"?>
<svg
   xmlns:dc="http://purl.org/dc/elements/1.1/"
   xmlns:cc="http://creativecommons.org/ns#"
   xmlns:rdf="http://www.w3.org/1999/02/22-rdf-syntax-ns#"
   xmlns:svg="http://www.w3.org/2000/svg"
   xmlns="http://www.w3.org/2000/svg"
   xmlns:sodipodi="http://sodipodi.sourceforge.net/DTD/sodipodi-0.dtd"
   xmlns:inkscape="http://www.inkscape.org/namespaces/inkscape"
   width="48"
   height="48"
   viewBox="0 0 48 48"
   version="1.1"
   id="svg6"
   sodipodi:docname="icon2.svg"
   inkscape:version="0.92.1 r15371">
  <metadata
     id="metadata12">
    <rdf:RDF>
      <cc:Work
         rdf:about="">
        <dc:format>image/svg+xml</dc:format>
        <dc:type
           rdf:resource="http://purl.org/dc/dcmitype/StillImage" />
        <dc:title />
      </cc:Work>
    </rdf:RDF>
  </metadata>
  <path
     d="m 23.990234,4 c -4.077554,0 -7.8637,1.2251464 -11.023437,3.3183594 l 2.914062,2.9140626 c 0.922099,-0.5448645 1.898864,-1.0103363 2.929688,-1.3632814 -0.509082,0.9460431 -0.954342,1.9297504 -1.361328,2.9316404 l 3.103515,3.105469 C 21.392906,12.4613 22.546622,10.159 24,8.0703125 25.67,10.470313 26.970313,13.14 27.820312,16 h -6.173828 l 4,4 h 3.033204 c 0.158301,1.091456 0.256499,2.201165 0.291015,3.326172 l 3.833985,3.835937 C 32.914676,26.122191 33,25.072318 33,24 33,22.64 32.890703,21.31 32.720703,20 h 6.75 C 39.800703,21.28 40,22.62 40,24 c 0,1.38 -0.189297,2.72 -0.529297,4 h -5.826172 l 7.029297,7.033203 C 42.771699,31.870296 44,28.080671 44,24 44,12.95 35.040234,4 23.990234,4 Z M 6.5507812,6 4,8.5507812 7.78125,12.332031 C 5.4107435,15.615836 4,19.636478 4,24 c 0,11.05 8.940234,20 19.990234,20 4.364556,0 8.387671,-1.412239 11.673828,-3.785156 L 39.449219,44 42,41.460938 Z M 29.179688,8.8808594 C 32.859687,10.140859 35.919844,12.69 37.839844,16 h -5.900391 c -0.65,-2.5 -1.559765,-4.899141 -2.759765,-7.1191406 z M 10.652344,15.203125 11.449219,16 h -1.298828 c 0.157998,-0.272383 0.328322,-0.535454 0.501953,-0.796875 z M 8.5195312,20 H 15.269531 C 15.109531,21.31 15,22.64 15,24 c 0,1.36 0.109297,2.69 0.279297,4 H 8.5195312 C 8.1895312,26.72 8,25.38 8,24 8,22.62 8.1895312,21.28 8.5195312,20 Z M 19.019531,23.570312 23.449219,28 H 19.320312 C 19.130312,26.69 19,25.36 19,24 c 0,-0.144687 0.01667,-0.285667 0.01953,-0.429688 z M 10.150391,32 h 5.90039 c 0.65,2.5 1.559766,4.900859 2.759766,7.130859 C 15.130547,37.870859 12.070391,35.31 10.150391,32 Z m 10.029297,0 h 7.269531 l 0.27539,0.275391 C 26.864961,35.029757 25.605723,37.608159 24,39.929688 22.34,37.529688 21.039687,34.86 20.179688,32 Z m 10.683593,3.414062 1.923828,1.923829 c -1.109793,0.736435 -2.313526,1.340377 -3.597656,1.78125 0.640925,-1.191053 1.193849,-2.430587 1.673828,-3.705079 z"
     id="path12"
     inkscape:connector-curvature="0"
     sodipodi:nodetypes="sccccccccccccsccscccsscccssccccccccccccccsccsccccscccccccccccccc"
     style="fill:#ffff00" />
  <path
     fill="none"
     d="M0 0h48v48H0z"
     id="path4"
     style="stroke:none" />
</svg>
