<?xml version="1.0" encoding="UTF-8" standalone="no"?>
<svg
   xmlns:dc="http://purl.org/dc/elements/1.1/"
   xmlns:cc="http://creativecommons.org/ns#"
   xmlns:rdf="http://www.w3.org/1999/02/22-rdf-syntax-ns#"
   xmlns:svg="http://www.w3.org/2000/svg"
   xmlns="http://www.w3.org/2000/svg"
   id="svg8"
   version="1.1"
   viewBox="0 0 682.02673 72.377167"
   height="273.55148"
   width="2577.7388">
  <defs
     id="defs2" />
  <metadata
     id="metadata5">
    <rdf:RDF>
      <cc:Work
         rdf:about="">
        <dc:format>image/svg+xml</dc:format>
        <dc:type
           rdf:resource="http://purl.org/dc/dcmitype/StillImage" />
        <dc:title></dc:title>
      </cc:Work>
    </rdf:RDF>
  </metadata>
  <g
     transform="translate(240.3022,-29.289641)"
     id="layer1">
    <g
       id="g918">
      <path
         id="rect823"
         d="M -222.96644,42.31244 H 439.83261 L 424.38875,88.644025 H -238.4103 Z"
         style="opacity:1;fill:#000000;fill-opacity:0.27045456;fill-rule:evenodd;stroke:#000000;stroke-width:2.79999995;stroke-linecap:round;stroke-linejoin:miter;stroke-miterlimit:4;stroke-dasharray:none;stroke-opacity:1;paint-order:normal" />
      <path
         style="font-style:normal;font-variant:normal;font-weight:bold;font-stretch:normal;font-size:medium;line-height:125%;font-family:'The Bold Font';-inkscape-font-specification:'The Bold Font Bold';letter-spacing:0px;word-spacing:0px;fill:#005500;fill-opacity:1;stroke:none;stroke-width:1.96677065px;stroke-linecap:butt;stroke-linejoin:miter;stroke-opacity:1"
         d="m 262.44021,29.289641 c -4.58915,0 -9.11276,0.885038 -13.57072,2.655137 -4.45807,1.770088 -8.45704,4.425214 -11.99724,7.965406 -3.40906,3.409064 -6.031,7.309669 -7.86669,11.702124 -1.7701,4.326895 -2.65562,8.948891 -2.65562,13.865823 0,4.851364 0.88552,9.473361 2.65562,13.865816 1.83569,4.326895 4.45763,8.227499 7.86669,11.70213 3.5402,3.540187 7.50659,6.195307 11.89907,7.965406 4.45796,1.704537 9.0142,2.556947 13.66889,2.556947 4.72022,0 9.27702,-0.85241 13.6695,-2.556947 4.39242,-1.770099 8.35826,-4.425219 11.89846,-7.965406 l -11.70212,-11.80031 c -1.90123,1.90121 -4.06434,3.343482 -6.49005,4.326861 -2.42565,0.91783 -4.88455,1.376662 -7.37579,1.376662 -2.49125,0 -4.94953,-0.458826 -7.37524,-1.376662 -2.36017,-0.983379 -4.49064,-2.425651 -6.39188,-4.326861 -1.83563,-1.901215 -3.2453,-3.999107 -4.22865,-6.293676 -0.98336,-2.360124 -1.47487,-4.851604 -1.47487,-7.47396 0,-2.622368 0.4914,-5.113325 1.47487,-7.47345 0.98335,-2.360124 2.39302,-4.491163 4.22865,-6.392373 1.90124,-1.901215 4.03171,-3.31034 6.39188,-4.228164 2.42571,-0.983385 4.88399,-1.475364 7.37524,-1.475364 2.49124,0 4.95014,0.491957 7.37579,1.475364 2.42571,0.917824 4.58882,2.326949 6.49005,4.228164 l 11.70212,-11.702124 c -3.5402,-3.540192 -7.53923,-6.195318 -11.99719,-7.965406 -4.39247,-1.770099 -8.91608,-2.655137 -13.57077,-2.655137 z M 92.781854,29.38781 88.159902,101.6666 h 16.717328 l 1.96683,-30.681329 10.62054,30.681329 h 16.61962 l 10.03042,-29.501556 1.76993,29.501556 h 16.61913 l -4.22816,-72.27879 h -17.11109 l -15.43937,45.236 -15.83211,-45.236 z M -197.4273,29.48653 v 72.18009 h 16.61914 V 90.161378 c 4.13022,-0.06554 7.9982,-0.885349 11.60394,-2.458766 3.60575,-1.638977 6.75233,-3.835266 9.44025,-6.588744 2.75348,-2.753478 4.88452,-5.932691 6.39237,-9.538438 1.57342,-3.671303 2.36007,-7.572424 2.36007,-11.702642 0,-4.130223 -0.78665,-7.998197 -2.36007,-11.603945 -1.50785,-3.671302 -3.63889,-6.883657 -6.39237,-9.637135 -2.68792,-2.753478 -5.8345,-4.949767 -9.44025,-6.588744 -3.60574,-1.638978 -7.47372,-2.49088 -11.60394,-2.556435 z m 76.04187,0 -24.58506,72.18009 h 17.60254 l 2.9502,-8.751924 h 22.71645 l 2.851505,8.751924 h 17.504356 L -105.65151,29.486535 Z m 43.999897,0 v 72.18009 h 16.619656 V 90.161378 c 4.130213,-0.06554 7.998192,-0.885349 11.60394,-2.458766 3.605747,-1.638977 6.752335,-3.835266 9.440252,-6.588744 2.753484,-2.753478 4.884001,-5.932691 6.391856,-9.538438 1.573417,-3.671303 2.360064,-7.572424 2.360064,-11.702642 0,-4.130223 -0.786647,-7.998197 -2.360064,-11.603945 -1.507855,-3.671302 -3.638372,-6.883657 -6.391856,-9.637135 -2.687917,-2.753478 -5.834505,-4.949767 -9.440252,-6.588744 -3.605748,-1.638978 -7.473727,-2.49088 -11.60394,-2.556435 z m 101.511629,0 -46.317582,0.09817 v 72.0819 H 24.126096 V 85.047475 H -5.5718298 V 73.640419 H 18.520753 V 57.02128 H -5.5718298 V 46.105668 H 24.126096 Z m 163.140414,0 -24.58454,72.18009 h 17.60254 l 2.95018,-8.751924 h 22.7165 l 2.85146,8.751924 h 17.50437 L 203.00095,29.486535 Z m 103.98229,0 v 72.18009 h 16.61913 V 74.426938 h 20.84784 V 101.66661 H 345.3349 V 29.486529 h -16.61913 v 28.32127 h -20.84784 v -28.32127 z m 107.60119,0 -46.31757,0.09817 v 72.0819 h 46.31757 V 85.047475 H 369.15155 V 73.640419 h 24.09308 V 57.02128 H 369.15155 V 46.105668 h 29.69844 z M 32.669236,29.682928 v 71.983712 h 16.61914 V 83.473959 c 0.917841,-0.06554 1.802873,-0.130799 2.655148,-0.196393 0.852252,-0.06554 1.704682,-0.163986 2.556935,-0.295063 L 66.10442,101.66663 H 85.67377 L 69.742942,75.902313 c 2.950161,-2.425685 5.244864,-5.277599 6.883824,-8.555548 1.638988,-3.343509 2.458243,-6.949446 2.458243,-10.817431 0,-3.671303 -0.78663,-7.11307 -2.360052,-10.325463 C 75.217096,42.991477 73.086563,40.172705 70.333096,37.74702 67.645167,35.32134 64.498084,33.387089 60.892315,31.944795 57.286573,30.502489 53.418604,29.748472 49.288376,29.682917 Z M -180.80816,46.203882 c 1.83565,0.06554 3.53997,0.49179 5.11339,1.278476 1.63897,0.721147 3.04862,1.704582 4.22868,2.950205 1.18006,1.180062 2.09773,2.58971 2.75331,4.228681 0.72116,1.638977 1.08211,3.375918 1.08211,5.211572 0,1.835648 -0.36094,3.573106 -1.08211,5.212083 -0.65558,1.638971 -1.57325,3.081244 -2.75331,4.326867 -1.18006,1.180062 -2.58971,2.163497 -4.22868,2.950211 -1.57342,0.721147 -3.27774,1.114729 -5.11339,1.18029 z m 120.042283,0 c 1.835655,0.06554 3.539965,0.49179 5.113381,1.278476 1.638977,0.721147 3.048624,1.704582 4.228681,2.950205 1.180068,1.180062 2.097731,2.58971 2.753323,4.228681 0.721147,1.638977 1.081587,3.375918 1.081587,5.211572 0,1.835648 -0.360434,3.573106 -1.081587,5.212083 -0.655592,1.638971 -1.573255,3.081244 -2.753323,4.326867 -1.180057,1.180062 -2.589704,2.163497 -4.228681,2.950211 -1.573416,0.721147 -3.277726,1.114729 -5.113381,1.18029 z m 110.054253,0.196894 c 1.770093,0.06554 3.441784,0.393343 5.015206,0.983402 1.63896,0.524475 3.048607,1.24535 4.228675,2.163174 1.245634,0.917825 2.196439,1.967032 2.852026,3.147094 0.721147,1.180062 1.081587,2.458166 1.081587,3.834905 0,1.376739 -0.360435,2.68799 -1.081587,3.933613 -0.655587,1.180062 -1.606392,2.229269 -2.852026,3.147093 -1.180068,0.91783 -2.589715,1.67133 -4.228675,2.261361 -1.573422,0.524476 -3.245113,0.819661 -5.015206,0.885216 z m -163.003476,12.390458 5.70353,17.504355 h -11.70213 z m 308.65247,0 5.70353,17.504355 h -11.70262 z"
         id="path888" />
      <path
         style="font-style:normal;font-variant:normal;font-weight:normal;font-stretch:normal;font-size:17.69050407px;line-height:125%;font-family:'The Bold Font';-inkscape-font-specification:'The Bold Font';letter-spacing:0px;word-spacing:0px;fill:#008000;fill-opacity:1;stroke:none;stroke-width:1.96677065px;stroke-linecap:butt;stroke-linejoin:miter;stroke-opacity:1"
         d="m -197.42866,42.311086 v 46.33227 h 25.75292 c 0.83647,-0.277373 1.66043,-0.585883 2.47045,-0.939354 3.60573,-1.638972 6.75432,-3.836279 9.44225,-6.589745 2.75348,-2.753481 4.88369,-5.934192 6.39154,-9.539927 1.57342,-3.671317 2.35842,-7.569913 2.35842,-11.700126 0,-4.130214 -0.785,-7.999585 -2.35842,-11.605335 -0.8829,-2.149684 -2.005,-4.122772 -3.31498,-5.957783 z m 71.6744,0 -15.78209,46.33227 h 54.984536 l -14.957656,-46.33227 z m 48.368929,0 v 46.33227 h 25.75005 c 0.83665,-0.277418 1.663122,-0.585809 2.473313,-0.939354 3.605735,-1.638972 6.751456,-3.836279 9.439384,-6.589745 2.753481,-2.753481 4.883691,-5.934192 6.391544,-9.539927 1.573419,-3.671317 2.361283,-7.569913 2.361283,-11.700126 0,-4.130214 -0.787864,-7.999585 -2.361283,-11.605335 -0.882906,-2.149684 -2.002136,-4.122772 -3.31211,-5.957783 z m 55.194258,0 v 46.33227 H 24.126828 V 85.046842 H -5.5730453 V 73.639724 H 18.519501 V 57.021711 H -5.5730453 V 46.105801 H 24.126828 v -3.794715 z m 54.861025,0 v 46.33227 H 49.28798 v -5.16783 c 0.917821,-0.0656 1.802021,-0.132664 2.654291,-0.198202 0.852255,-0.0656 1.707216,-0.164756 2.559485,-0.295875 l 3.516063,5.661907 H 77.620488 L 69.743801,75.903348 c 2.950153,-2.425689 5.243796,-5.27955 6.882768,-8.557494 1.638971,-3.343511 2.458943,-6.947378 2.458943,-10.815367 0,-3.671303 -0.787865,-7.11462 -2.361284,-10.327012 -0.645082,-1.374321 -1.427872,-2.662057 -2.300953,-3.892389 z m 59.284834,0 -2.961654,46.33227 H 105.7117 l 1.13181,-17.657909 6.1129,17.657909 h 25.55757 l 5.60159,-16.477275 0.98817,16.477275 h 16.63813 l -2.71174,-46.33227 H 136.75308 L 125.72514,74.625039 114.4157,42.311086 Z m 90.943834,0 -15.7821,46.33227 h 54.98455 l -14.95766,-46.33227 z m 51.77873,0 c -2.35901,2.807678 -4.2545,5.906261 -5.67341,9.3015 -1.77009,4.3269 -2.65428,8.949146 -2.65428,13.866076 0,4.851364 0.88419,9.47361 2.65428,13.866062 1.4246,3.357998 3.32986,6.453949 5.70213,9.298632 h 50.91981 l -9.31874,-9.399174 c -1.90121,1.901211 -4.0664,3.345629 -6.49209,4.329018 -2.42568,0.917822 -4.88273,1.375983 -7.37397,1.375983 -2.49124,0 -4.95117,-0.458161 -7.37686,-1.375983 -2.36012,-0.983389 -4.49033,-2.427807 -6.39154,-4.329018 -1.83566,-1.901211 -3.24509,-3.996446 -4.22848,-6.291001 -0.98339,-2.360137 -1.47364,-4.852158 -1.47364,-7.474519 0,-2.622361 0.49025,-5.114396 1.47364,-7.474533 0.98339,-2.360122 2.39282,-4.490333 4.22848,-6.391543 1.90121,-1.901211 4.03142,-3.310654 6.39154,-4.228476 2.42569,-0.983389 4.88562,-1.476511 7.37686,-1.476511 2.49124,0 4.94829,0.493122 7.37397,1.476511 2.42569,0.917822 4.59088,2.327265 6.49209,4.228476 l 9.29863,-9.3015 z m 56.57022,0 v 46.33227 h 16.6209 V 74.426823 h 20.8465 v 14.216533 h 16.6209 v -46.33227 h -16.6209 v 15.497709 h -20.8465 V 42.311086 Z m 61.28418,0 v 46.33227 h 46.31788 V 85.046842 H 369.15264 V 73.639724 h 24.09255 V 57.021711 h -24.09255 v -10.91591 h 29.69699 v -3.794715 z m -533.3395,3.892389 c 1.83565,0.0656 3.53982,0.491592 5.11324,1.278309 1.63897,0.72115 3.04841,1.704539 4.22847,2.950167 1.18007,1.180061 2.09924,2.589489 2.75482,4.228476 0.72115,1.638972 1.08011,3.378118 1.08011,5.213777 0,1.835644 -0.35896,3.571937 -1.08011,5.210909 -0.65558,1.638971 -1.57475,3.080521 -2.75482,4.326135 -1.18006,1.180061 -2.5895,2.163464 -4.22847,2.950167 -1.57342,0.72115 -3.27759,1.115082 -5.11324,1.180649 z m 120.040446,0 c 1.835659,0.0656 3.542698,0.491592 5.116118,1.278309 1.638972,0.72115 3.048415,1.704539 4.228476,2.950167 1.180061,1.180061 2.096368,2.589489 2.751951,4.228476 0.72115,1.638972 1.082975,3.378118 1.082975,5.213777 0,1.835644 -0.361825,3.571937 -1.082975,5.210909 -0.655583,1.638971 -1.57189,3.080521 -2.751951,4.326135 -1.180061,1.180061 -2.589504,2.163464 -4.228476,2.950167 -1.57342,0.72115 -3.280459,1.115082 -5.116118,1.180649 z M 49.28798,46.401677 c 1.770091,0.0656 3.442155,0.392402 5.01556,0.982433 1.638987,0.524478 3.048415,1.245245 4.228476,2.163067 1.245628,0.917837 2.19691,1.968323 2.852508,3.148384 0.72115,1.180061 1.080092,2.458193 1.080092,3.834926 0,1.376747 -0.358942,2.686972 -1.080092,3.9326 -0.655598,1.180061 -1.60688,2.227679 -2.852508,3.145501 -1.180061,0.917822 -2.589489,1.673579 -4.228476,2.263609 -1.573405,0.524478 -3.245469,0.819207 -5.01556,0.884774 z m -163.00315,12.389551 5.70213,17.502787 h -11.70013 z m 308.65287,0 5.70214,17.502787 h -11.70013 z"
         id="text829" />
    </g>
  </g>
</svg>
